<svg xmlns="http://www.w3.org/2000/svg" viewBox="0 0 24 24"><defs><style>.cls-1{opacity:0;}</style></defs><g id="Layer_2" data-name="Layer 2"><g id="design"><rect class="cls-1" width="24" height="24"/><g id="Icon-2"><path d="M22,2.91H2a.91.91,0,0,0-.91.91V8.36A.91.91,0,0,0,2,9.27h.91V20.18a.91.91,0,0,0,.91.91H20.18a.91.91,0,0,0,.91-.91V9.27H22a.91.91,0,0,0,.91-.91V3.82A.91.91,0,0,0,22,2.91ZM19.27,19.27H4.73v-10H19.27ZM21.09,7.45H2.91V4.73H21.09Z"/><path d="M13.82,12.91H10.18a.91.91,0,0,1,0-1.82h3.64a.91.91,0,0,1,0,1.82Z"/></g></g></g></svg>