<svg xmlns="http://www.w3.org/2000/svg" viewBox="0 0 24 24"><defs><style>.cls-1{opacity:0;}</style></defs><g id="Layer_2" data-name="Layer 2"><g id="design"><rect class="cls-1" width="24" height="24"/><g id="Icon-2"><path d="M12,1A11,11,0,1,0,23,12,11,11,0,0,0,12,1Zm0,20a9,9,0,1,1,9-9A9,9,0,0,1,12,21Z"/><path d="M16.71,12.71l-4,4a1,1,0,0,1-.32.21.37.37,0,0,1-.14,0,.8.8,0,0,1-.5,0,.37.37,0,0,1-.14,0,1,1,0,0,1-.32-.21l-4-4a1,1,0,1,1,1.42-1.42L11,13.59V8a1,1,0,0,1,2,0v5.59l2.29-2.3a1,1,0,0,1,1.42,1.42Z"/></g></g></g></svg>