<svg xmlns="http://www.w3.org/2000/svg" viewBox="0 0 24 24"><defs><style>.cls-1{opacity:0;}</style></defs><g id="Layer_2" data-name="Layer 2"><g id="design"><rect class="cls-1" width="24" height="24"/><g id="Icon-2"><path d="M17,23H7a6,6,0,0,1-6-6V7A6,6,0,0,1,7,1H17a6,6,0,0,1,6,6V17A6,6,0,0,1,17,23ZM7,3A4,4,0,0,0,3,7V17a4,4,0,0,0,4,4H17a4,4,0,0,0,4-4V7a4,4,0,0,0-4-4Z"/><path d="M12,17a5,5,0,0,1-.73-10,5.17,5.17,0,0,1,1.47,0,5,5,0,0,1,0,9.89A4.71,4.71,0,0,1,12,17Zm0-8L11.6,9a3,3,0,0,0,.88,5.93,2.9,2.9,0,0,0,2-1.18A2.94,2.94,0,0,0,15,11.52h0A3,3,0,0,0,12.48,9,3.15,3.15,0,0,0,12,9Z"/><path d="M17.51,7.5a1,1,0,1,1,0-2h0a1,1,0,0,1,0,2Z"/></g></g></g></svg>