<svg xmlns="http://www.w3.org/2000/svg" viewBox="0 0 24 24"><defs><style>.cls-1{opacity:0;}</style></defs><g id="Layer_2" data-name="Layer 2"><g id="design"><rect class="cls-1" width="24" height="24"/><g id="Icon"><g id="Icon-2"><path d="M22.46,2.12a.92.92,0,0,0-.91,0l-5.94,3.4L8.77,2.1,8.63,2a.84.84,0,0,0-.27,0,.59.59,0,0,0-.27,0L8,2.1l-.1.06-6.3,3.6a.91.91,0,0,0-.46.79V21.09a.91.91,0,0,0,.45.79A1,1,0,0,0,2,22a.89.89,0,0,0,.45-.12l5.94-3.39,6.84,3.41.14.06a.84.84,0,0,0,.27,0,.59.59,0,0,0,.27-.05l.14-.05.1-.06,6.3-3.6a.91.91,0,0,0,.46-.78V2.91A.91.91,0,0,0,22.46,2.12Zm-15,14.81L2.91,19.52V7.07L7.45,4.48Zm7.28,2.69L9.27,16.89V4.38l5.46,2.73Zm6.36-2.69-4.54,2.59V7.07l4.54-2.59Z"/></g></g></g></g></svg>