<svg xmlns="http://www.w3.org/2000/svg" viewBox="0 0 24 24"><defs><style>.cls-1{opacity:0;}</style></defs><g id="Layer_2" data-name="Layer 2"><g id="design"><rect class="cls-1" width="24" height="24"/><g id="Icon"><g id="Icon-2"><path d="M19.27,8.36A7.27,7.27,0,1,0,7.58,14.12l-1,7.76a.91.91,0,0,0,1.37.9L12,20.33l4.08,2.45a.85.85,0,0,0,.47.13.88.88,0,0,0,.49-.15.91.91,0,0,0,.41-.88l-1-7.76A7.23,7.23,0,0,0,19.27,8.36Zm-12.72,0a5.45,5.45,0,1,1,8.5,4.53l-.18.11A5.46,5.46,0,0,1,9,12.92,5.49,5.49,0,0,1,6.55,8.36ZM15.4,20.25l-2.93-1.76a.93.93,0,0,0-.94,0L8.6,20.25l.69-5.15a7.07,7.07,0,0,0,5.42,0Z"/></g></g></g></g></svg>