<svg xmlns="http://www.w3.org/2000/svg" viewBox="0 0 24 24"><defs><style>.cls-1{opacity:0;}</style></defs><g id="Layer_2" data-name="Layer 2"><g id="design"><rect class="cls-1" width="24" height="24"/><g id="Icon-2"><path d="M20.89,23.11A1.11,1.11,0,0,1,19.78,22V19.78a3.35,3.35,0,0,0-3.34-3.34H7.56a3.35,3.35,0,0,0-3.34,3.34V22A1.11,1.11,0,0,1,2,22V19.78a5.56,5.56,0,0,1,5.56-5.56h8.88A5.56,5.56,0,0,1,22,19.78V22A1.11,1.11,0,0,1,20.89,23.11Z"/><path d="M12,12a5.56,5.56,0,1,1,5.55-5.56A5.56,5.56,0,0,1,12,12Zm0-8.89a3.34,3.34,0,1,0,3.33,3.33A3.34,3.34,0,0,0,12,3.11Z"/></g></g></g></svg>