<svg xmlns="http://www.w3.org/2000/svg" viewBox="0 0 24 24"><defs><style>.cls-1{opacity:0;}</style></defs><g id="Layer_2" data-name="Layer 2"><g id="design"><rect class="cls-1" width="24" height="24"/><g id="Icon"><g id="Icon-2"><path d="M12,23A11,11,0,1,1,23,12,11,11,0,0,1,12,23ZM12,3a9,9,0,1,0,9,9A9,9,0,0,0,12,3Z"/><path d="M7.76,17.24a1,1,0,0,1-1-1.32L8.93,9.56a1,1,0,0,1,.63-.63l6.36-2.12a1,1,0,0,1,1.27,1.27l-2.12,6.36a1,1,0,0,1-.63.63L8.08,17.19A1.19,1.19,0,0,1,7.76,17.24Zm2.91-6.57-1.33,4,4-1.33,1.33-4Z"/></g></g></g></g></svg>