<svg xmlns="http://www.w3.org/2000/svg" viewBox="0 0 24 24"><defs><style>.cls-1{opacity:0;}</style></defs><g id="Layer_2" data-name="Layer 2"><g id="design"><rect class="cls-1" width="24" height="24"/><g id="Icon-2"><path d="M23.43,12A1.43,1.43,0,0,1,22,13.43H5.45L13,21a1.43,1.43,0,1,1-2,2L1,13a1.28,1.28,0,0,1-.31-.47,1.44,1.44,0,0,1,0-1.08A1.25,1.25,0,0,1,1,11L11,1a1.43,1.43,0,0,1,2,2L5.45,10.57H22A1.43,1.43,0,0,1,23.43,12Z"/><path d="M1,13a1.25,1.25,0,0,1-.31-.47A1.28,1.28,0,0,0,1,13Z"/></g></g></g></svg>